<svg xmlns="http://www.w3.org/2000/svg" xmlns:xlink="http://www.w3.org/1999/xlink" width="260px" height="154px" style="shape-rendering:geometricPrecision; text-rendering:geometricPrecision; image-rendering:optimizeQuality; fill-rule:evenodd; clip-rule:evenodd"><g><path style="opacity:1" fill="#020402" d="M -0.5,-0.5 C 86.1667,-0.5 172.833,-0.5 259.5,-0.5C 259.5,50.8333 259.5,102.167 259.5,153.5C 172.833,153.5 86.1667,153.5 -0.5,153.5C -0.5,102.167 -0.5,50.8333 -0.5,-0.5 Z"></path></g><g><path style="opacity:1" fill="#b6b6b6" d="M 171.5,140.5 C 171.5,98.5 171.5,56.5 171.5,14.5C 143.833,14.5 116.167,14.5 88.5,14.5C 88.1707,29.0097 88.5041,43.3431 89.5,57.5C 89.6309,58.3764 89.2975,59.0431 88.5,59.5C 87.5006,44.1811 87.1673,28.8478 87.5,13.5C 115.833,13.5 144.167,13.5 172.5,13.5C 172.832,56.0033 172.499,98.3366 171.5,140.5 Z"></path></g><g><path style="opacity:1" fill="#fcfcfc" d="M 171.5,140.5 C 161.827,146.167 151.827,146.834 141.5,142.5C 142.763,140.971 143.763,139.305 144.5,137.5C 145.966,136.653 146.8,135.32 147,133.5C 147.818,127.651 147.652,121.985 146.5,116.5C 145.662,116.158 145.328,115.492 145.5,114.5C 145.573,112.973 144.906,111.973 143.5,111.5C 141.085,107.578 138.085,104.078 134.5,101C 125.833,95 117.167,89 108.5,83C 102.996,79.1417 99.6628,73.9751 98.5,67.5C 98.5045,63.4659 98.8379,59.4659 99.5,55.5C 104.867,45.6636 112.867,42.8302 123.5,47C 127.777,47.7121 129.944,50.2121 130,54.5C 134.42,58.4135 138.253,62.7468 141.5,67.5C 145.995,57.4183 143.995,49.2517 135.5,43C 131.104,42.2542 126.77,41.2542 122.5,40C 106.589,36.9515 95.5892,42.7848 89.5,57.5C 88.5041,43.3431 88.1707,29.0097 88.5,14.5C 116.167,14.5 143.833,14.5 171.5,14.5C 171.5,56.5 171.5,98.5 171.5,140.5 Z"></path></g><g><path style="opacity:1" fill="#616261" d="M 47.5,55.5 C 39.6484,55.1746 31.9818,55.508 24.5,56.5C 23.325,56.719 22.325,56.3857 21.5,55.5C 30.3245,54.1786 38.9912,54.1786 47.5,55.5 Z"></path></g><g><path style="opacity:1" fill="#f0f0f0" d="M 24.5,56.5 C 31.9818,55.508 39.6484,55.1746 47.5,55.5C 58.2949,56.0998 62.1282,61.4331 59,71.5C 56.6032,74.4 53.7698,76.7333 50.5,78.5C 55.8693,79.7033 60.3693,82.3699 64,86.5C 67.4185,99.1141 62.5852,106.614 49.5,109C 45.5138,109.499 41.5138,109.666 37.5,109.5C 33.5,108.833 29.5,108.167 25.5,107.5C 26.7899,106.942 27.6232,105.942 28,104.5C 28.8329,88.8227 28.6662,73.156 27.5,57.5C 26.5832,56.8728 25.5832,56.5394 24.5,56.5 Z"></path></g><g><path style="opacity:1" fill="#121312" d="M 39.5,56.5 C 49.6999,56.5586 53.1999,61.5586 50,71.5C 47.8614,77.3219 43.6947,79.6553 37.5,78.5C 36.9238,70.889 37.5905,63.5556 39.5,56.5 Z"></path></g><g><path style="opacity:1" fill="#eeeeee" d="M 240.5,62.5 C 240.66,64.1992 240.494,65.8659 240,67.5C 239.617,66.944 239.117,66.6107 238.5,66.5C 231.677,56.3948 222.677,53.8948 211.5,59C 207.695,61.6169 205.362,65.1169 204.5,69.5C 202.994,72.356 202.328,75.5226 202.5,79C 202.504,81.3608 202.837,83.5274 203.5,85.5C 204.766,95.5811 209.766,103.081 218.5,108C 226.971,109.261 233.638,106.428 238.5,99.5C 239.117,99.3893 239.617,99.056 240,98.5C 240.497,101.146 240.664,103.813 240.5,106.5C 229.597,110.289 218.597,110.456 207.5,107C 199.89,102.565 195.224,96.065 193.5,87.5C 193.392,82.1301 193.725,76.7968 194.5,71.5C 198.77,62.679 205.77,57.179 215.5,55C 223.921,54.2138 232.254,54.7138 240.5,56.5C 240.5,58.5 240.5,60.5 240.5,62.5 Z"></path></g><g><path style="opacity:1" fill="#8f8f8e" d="M 99.5,55.5 C 98.8379,59.4659 98.5045,63.4659 98.5,67.5C 97.8401,66.036 97.5068,64.3693 97.5,62.5C 97.3161,59.7954 97.9827,57.4621 99.5,55.5 Z"></path></g><g><path style="opacity:1" fill="#848484" d="M 240.5,62.5 C 241.8,65.0241 241.8,67.6908 240.5,70.5C 239.295,69.4231 238.628,68.0898 238.5,66.5C 239.117,66.6107 239.617,66.944 240,67.5C 240.494,65.8659 240.66,64.1992 240.5,62.5 Z"></path></g><g><path style="opacity:1" fill="#a5a5a4" d="M 204.5,69.5 C 203.725,74.7968 203.392,80.1301 203.5,85.5C 202.837,83.5274 202.504,81.3608 202.5,79C 202.328,75.5226 202.994,72.356 204.5,69.5 Z"></path></g><g><path style="opacity:1" fill="#0a0b0a" d="M 45.5,81.5 C 47.5932,82.0447 49.5932,82.878 51.5,84C 55.2784,89.2095 56.2784,95.0429 54.5,101.5C 49.83,107.905 44.4967,108.905 38.5,104.5C 38.5,96.8333 38.5,89.1667 38.5,81.5C 40.8333,81.5 43.1667,81.5 45.5,81.5 Z"></path></g><g><path style="opacity:1" fill="#a1a1a2" d="M 194.5,71.5 C 193.725,76.7968 193.392,82.1301 193.5,87.5C 192.837,85.5274 192.504,83.3608 192.5,81C 192.328,77.5226 192.994,74.356 194.5,71.5 Z"></path></g><g><path style="opacity:1" fill="#686868" d="M 45.5,81.5 C 43.1667,81.5 40.8333,81.5 38.5,81.5C 38.5,89.1667 38.5,96.8333 38.5,104.5C 37.5076,96.6841 37.1743,88.6841 37.5,80.5C 40.3854,80.1936 43.0521,80.5269 45.5,81.5 Z"></path></g><g><path style="opacity:1" fill="#e7e7e7" d="M 125.5,119.5 C 123.632,118.326 122.632,118.993 122.5,121.5C 114.994,115.499 107.327,109.666 99.5,104C 96.016,99.5486 92.1827,95.382 88,91.5C 87.1735,87.4589 87.3401,83.4589 88.5,79.5C 95.6414,92.4747 105.641,102.641 118.5,110C 121.848,112.501 124.182,115.668 125.5,119.5 Z"></path></g><g><path style="opacity:1" fill="#adaead" d="M 240.5,106.5 C 240.664,103.813 240.497,101.146 240,98.5C 239.617,99.056 239.117,99.3893 238.5,99.5C 238.962,97.2433 239.962,95.2433 241.5,93.5C 241.833,94.3333 242.167,95.1667 242.5,96C 242.028,99.6766 241.362,103.177 240.5,106.5 Z"></path></g><g><path style="opacity:1" fill="#575856" d="M 25.5,107.5 C 29.5,108.167 33.5,108.833 37.5,109.5C 32.1254,109.828 26.7921,109.495 21.5,108.5C 22.6888,107.571 24.0222,107.238 25.5,107.5 Z"></path></g><g><path style="opacity:1" fill="#f8f8f8" d="M 89.5,107.5 C 99.8486,116.342 111.182,123.675 123.5,129.5C 123.806,126.615 123.473,123.948 122.5,121.5C 122.632,118.993 123.632,118.326 125.5,119.5C 128.683,128.778 126.017,135.945 117.5,141C 105.653,145.103 95.9865,142.269 88.5,132.5C 88.1739,123.983 88.5073,115.65 89.5,107.5 Z"></path></g><g><path style="opacity:1" fill="#767676" d="M 143.5,111.5 C 144.906,111.973 145.573,112.973 145.5,114.5C 144.094,114.027 143.427,113.027 143.5,111.5 Z"></path></g><g><path style="opacity:1" fill="#8e8e8e" d="M 89.5,107.5 C 88.5073,115.65 88.1739,123.983 88.5,132.5C 87.1786,123.991 87.1786,115.325 88.5,106.5C 89.1067,106.624 89.44,106.957 89.5,107.5 Z"></path></g><g><path style="opacity:1" fill="#8f8f8f" d="M 146.5,116.5 C 147.652,121.985 147.818,127.651 147,133.5C 146.8,135.32 145.966,136.653 144.5,137.5C 146.284,130.649 146.95,123.649 146.5,116.5 Z"></path></g></svg>