<?xml version="1.0" standalone="no"?>
<!DOCTYPE svg PUBLIC "-//W3C//DTD SVG 20010904//EN"
 "http://www.w3.org/TR/2001/REC-SVG-20010904/DTD/svg10.dtd">
<svg version="1.0" xmlns="http://www.w3.org/2000/svg"
 width="260.000000pt" height="154.000000pt" viewBox="0 0 260.000000 154.000000"
 preserveAspectRatio="xMidYMid meet">

<g transform="translate(0.000000,154.000000) scale(0.100000,-0.100000)"
fill="#000000" stroke="none">
<path d="M0 770 l0 -770 1300 0 1300 0 0 770 0 770 -1300 0 -1300 0 0 -770z
m1730 -3 l0 -634 -47 -21 c-68 -31 -112 -36 -192 -22 l-70 12 19 36 c25 46 43
136 37 182 -13 97 -83 179 -244 286 -152 101 -226 173 -241 236 -17 65 -15 85
9 136 29 59 95 102 159 102 59 0 134 -36 138 -68 2 -12 22 -41 45 -65 23 -23
49 -54 58 -67 9 -14 19 -23 22 -20 3 3 8 39 12 80 6 72 6 76 -23 116 -28 38
-37 43 -116 63 -96 24 -170 27 -228 9 -55 -16 -132 -88 -155 -143 -10 -25 -21
-45 -25 -45 -10 0 -11 444 -1 453 3 4 195 7 425 7 l418 0 0 -633z m-1175 194
c17 -9 36 -33 43 -53 13 -33 12 -41 -4 -75 -11 -21 -33 -47 -51 -58 -41 -25
-41 -31 -1 -39 102 -20 150 -140 87 -220 -47 -60 -114 -78 -260 -70 -113 7
-116 7 -98 25 17 17 19 38 19 244 0 210 -1 226 -20 245 -19 19 -19 19 58 23
112 6 193 -2 227 -22z m1807 19 c21 -6 39 -14 41 -18 9 -16 18 -122 10 -122
-5 0 -17 17 -28 37 -30 55 -96 93 -163 93 -126 0 -189 -89 -180 -254 6 -99 35
-172 89 -220 84 -77 201 -52 261 54 13 22 26 40 30 40 6 0 2 -60 -8 -106 -5
-28 -71 -45 -169 -46 -125 0 -210 39 -266 122 -133 198 13 429 271 430 41 0
92 -5 112 -10z m-1434 -305 c33 -55 82 -102 226 -217 92 -73 116 -112 116
-184 0 -87 -60 -153 -148 -162 -77 -7 -144 13 -197 60 l-45 40 0 124 c0 68 3
124 6 124 4 0 39 -24 78 -54 39 -30 109 -75 155 -102 46 -26 85 -54 88 -61 8
-21 20 -15 27 14 12 44 -12 78 -96 139 -117 84 -165 126 -214 186 -38 46 -44
59 -44 100 0 27 3 48 8 48 4 0 22 -25 40 -55z"/>
<path d="M390 951 c-5 -11 -10 -60 -10 -110 l0 -91 38 0 c57 0 85 34 90 109 4
54 2 62 -21 85 -32 32 -81 35 -97 7z"/>
<path d="M384 715 c-3 -8 -4 -64 -2 -125 3 -126 8 -133 77 -127 30 3 52 13 70
31 23 23 26 35 26 89 0 49 -5 69 -23 94 -32 45 -135 72 -148 38z"/>
</g>
</svg>
