<svg width="24" height="24" viewBox="0 0 24 24" xmlns="http://www.w3.org/2000/svg"><path d="M3.56 14.363L14.363 3.56a1.91 1.91 0 0 1 2.7 0l3.377 3.376a1.91 1.91 0 0 1 0 2.7L9.636 20.442a1.91 1.91 0 0 1-2.7 0l-3.377-3.377a1.91 1.91 0 0 1 0-2.7zm4.12-.743l1.282-1.282 1.823 1.824a.764.764 0 1 0 1.08-1.082l-1.824-1.822 1.216-1.215 1.148 1.145a.763.763 0 0 0 1.318-.534.765.765 0 0 0-.237-.545l-1.148-1.147 1.282-1.283 1.824 1.824a.764.764 0 0 0 1.08-1.082l-1.825-1.824 1.014-1.012a.478.478 0 1 0-.676-.675L4.91 15.038a.478.478 0 0 0 .675.675l1.012-1.012 1.15 1.146a.764.764 0 1 0 1.08-1.079L7.679 13.62v.001z" fill="currentColor"></path></svg>